<?xml version="1.0" encoding="utf-8"?>
<!-- Generator: Adobe Illustrator 16.0.0, SVG Export Plug-In . SVG Version: 6.00 Build 0)  -->
<!DOCTYPE svg PUBLIC "-//W3C//DTD SVG 1.1//EN" "http://www.w3.org/Graphics/SVG/1.1/DTD/svg11.dtd">
<svg version="1.1" id="Layer_1" xmlns="http://www.w3.org/2000/svg" xmlns:xlink="http://www.w3.org/1999/xlink" x="0px" y="0px"
	 width="32px" height="52px" viewBox="0 0 32 52" enable-background="new 0 0 32 52" xml:space="preserve">
<g>
	<g>
		<path fill="#FBAE3B" d="M11.677,14.434c-6.394,0-11.579,5.184-11.579,11.578c0,6.395,5.186,11.578,11.579,11.578
			c6.395,0,11.576-5.183,11.576-11.578C23.253,19.618,18.071,14.434,11.677,14.434z M11.677,30.172c-2.295,0-4.159-1.863-4.159-4.16
			s1.864-4.159,4.159-4.159c2.298,0,4.16,1.862,4.16,4.159S13.975,30.172,11.677,30.172z"/>
		<path fill="#4D4D4D" d="M10.92,14.46c0.067-0.005,0.136-0.008,0.202-0.011C11.056,14.451,10.987,14.455,10.92,14.46z"/>
		<path fill="#4D4D4D" d="M11.677,14.434c-0.039,0-0.076,0.001-0.113,0.002c0.037,0,0.076,0,0.113,0V14.434z"/>
		<path fill="#4D4D4D" d="M11.241,14.443c0.063-0.002,0.123-0.004,0.186-0.006C11.364,14.439,11.304,14.441,11.241,14.443z"/>
		<path fill="#4D4D4D" d="M11.63,21.854c0.002,0,0.006,0,0.008,0C11.636,21.854,11.632,21.854,11.63,21.854z"/>
		<path fill="#4D4D4D" d="M10.87,14.462C10.87,14.463,10.87,14.463,10.87,14.462c0.018,0,0.032-0.002,0.05-0.002
			C10.902,14.46,10.888,14.462,10.87,14.462z"/>
		<path fill="#4D4D4D" d="M9.511,22.462c0.649-0.396,1.384-0.6,2.119-0.608C10.854,21.863,10.129,22.083,9.511,22.462L9.511,22.462z
			"/>
		<path fill="#4D4D4D" d="M11.427,14.438c0.045-0.001,0.091-0.001,0.137-0.001C11.518,14.436,11.472,14.437,11.427,14.438z"/>
		<path fill="#4D4D4D" d="M11.122,14.449c0.04-0.002,0.078-0.004,0.119-0.005C11.2,14.445,11.162,14.446,11.122,14.449z"/>
		<path fill="#ED1C24" d="M23.25,14.434c-2.011,0-3.86,0.683-5.331,1.83l-0.008-0.003L3.491,34.204
			c0.588,0.588,1.239,1.111,1.941,1.56l14.42-17.944c0.753,0.752,1.4,1.608,1.927,2.543c0.438-0.235,0.938-0.369,1.471-0.369
			c1.722,0,3.116,1.396,3.116,3.117s-1.395,3.117-3.116,3.117h-0.003c-0.075,4.143-2.326,7.752-5.658,9.737v1.625h5.661v-5.802
			c4.791,0,8.677-3.884,8.677-8.677C31.927,18.318,28.041,14.434,23.25,14.434z"/>
	</g>
</g>
</svg>
