<?xml version="1.0" encoding="utf-8"?>
<!-- Generator: Adobe Illustrator 16.0.0, SVG Export Plug-In . SVG Version: 6.00 Build 0)  -->
<!DOCTYPE svg PUBLIC "-//W3C//DTD SVG 1.1//EN" "http://www.w3.org/Graphics/SVG/1.1/DTD/svg11.dtd">
<svg version="1.1" id="Layer_1" xmlns="http://www.w3.org/2000/svg" xmlns:xlink="http://www.w3.org/1999/xlink" x="0px" y="0px"
	 width="32px" height="52px" viewBox="0 0 32 52" enable-background="new 0 0 32 52" xml:space="preserve">
<g>
	<linearGradient id="SVGID_1_" gradientUnits="userSpaceOnUse" x1="0.0098" y1="27.4346" x2="31.9902" y2="27.4346">
		<stop  offset="0" style="stop-color:#2F1464"/>
		<stop  offset="1" style="stop-color:#2F1464"/>
	</linearGradient>
	<path fill="url(#SVGID_1_)" d="M23.271,15.801c-2.018,0-3.875,0.686-5.353,1.836c-1.811-1.162-3.964-1.836-6.275-1.836
		c-6.425,0-11.634,5.208-11.634,11.634c0,3.214,1.303,6.124,3.41,8.229l-0.002,0.002c0.592,0.591,1.246,1.116,1.95,1.567l0.001,0
		c1.81,1.162,3.963,1.835,6.274,1.835c2.171,0,4.2-0.595,5.94-1.629v1.629h5.688v-5.83c4.815,0,8.719-3.903,8.719-8.719
		C31.99,19.705,28.087,15.801,23.271,15.801z M7.464,27.435c0-2.308,1.871-4.179,4.18-4.179c0.535,0,1.048,0.102,1.519,0.286
		l-4.994,6.214C7.724,29.092,7.464,28.294,7.464,27.435z M11.644,31.614c-0.54,0-1.054-0.103-1.526-0.289l4.996-6.218
		c0.448,0.666,0.709,1.466,0.709,2.328C15.822,29.743,13.951,31.614,11.644,31.614z M23.274,27.651
		c0.001-0.072,0.003-0.144,0.003-0.217c0-2.062-0.538-3.999-1.479-5.679c0.44-0.235,0.94-0.368,1.474-0.368
		c1.729,0,3.133,1.402,3.133,3.132C26.404,26.249,25.003,27.65,23.274,27.651z"/>
</g>
</svg>
