<?xml version="1.0" encoding="utf-8"?>
<!-- Generator: Adobe Illustrator 16.0.0, SVG Export Plug-In . SVG Version: 6.00 Build 0)  -->
<!DOCTYPE svg PUBLIC "-//W3C//DTD SVG 1.1//EN" "http://www.w3.org/Graphics/SVG/1.1/DTD/svg11.dtd">
<svg version="1.1" id="Layer_1" xmlns="http://www.w3.org/2000/svg" xmlns:xlink="http://www.w3.org/1999/xlink" x="0px" y="0px"
	 width="63.255px" height="35.261px" viewBox="0 0 63.255 35.261" enable-background="new 0 0 63.255 35.261" xml:space="preserve">
<g>
	<g>
		<path fill="#DCF20C" d="M4.57,12.308C2.121,12.308,0,10.311,0,7.737V6.489c0-2.293,1.81-4.571,4.555-4.586h0.39
			c1.903,0,3.292,1.155,3.947,2.278c0.281,0.483-1.482,1.513-1.763,1.014C6.771,4.585,5.975,3.931,4.96,3.946H4.57
			c-1.528,0-2.527,1.279-2.527,2.542v1.248c0,1.404,1.17,2.527,2.512,2.527H4.96C5.975,10.28,6.771,9.64,7.129,9.032
			c0.28-0.5,2.044,0.53,1.763,1.014c-0.655,1.123-2.044,2.277-3.947,2.262H4.57z"/>
		<path fill="#DCF20C" d="M13.806,12.308c-2.449-0.016-4.57-2.012-4.57-4.571V6.473c0-2.527,2.043-4.571,4.57-4.571h0.078
			c2.527,0,4.57,2.044,4.57,4.571v0.5c0,0.515-0.108,1.076-0.421,1.076h-6.739c0.172,1.248,1.264,2.215,2.512,2.215h0.391
			c1.014,0,1.809-0.64,2.168-1.248c0.28-0.484,2.043,0.53,1.763,1.03c-0.64,1.107-2.044,2.262-3.947,2.262H13.806z M13.806,3.946
			c-1.295,0-2.371,0.982-2.512,2.246h5.102c-0.141-1.264-1.217-2.246-2.512-2.246H13.806z"/>
		<path fill="#DCF20C" d="M19.078,2.729c2.699-1.217,5.07-0.733,5.117-0.733c0.515,0.125-0.078,2.059-0.437,1.997
			c-0.141-0.031-0.313-0.046-0.469-0.046h-0.358c-0.78,0.046-1.248,0.203-1.81,0.421v7.707c0,0.312-2.044,0.312-2.044,0V2.729z"/>
		<path fill="#DCF20C" d="M24.086,6.473c0-2.527,2.044-4.571,4.571-4.571h0.358c2.527,0,4.57,2.044,4.57,4.571v1.264
			c0,2.527-2.043,4.571-4.57,4.571h-0.358c-2.527,0-4.571-2.043-4.571-4.571V6.473z M31.543,6.473c0-1.388-1.123-2.527-2.527-2.527
			h-0.358c-1.404,0-2.527,1.139-2.527,2.527v1.264c0,1.389,1.123,2.527,2.527,2.527h0.358c1.404,0,2.527-1.139,2.527-2.527V6.473z"
			/>
	</g>
	<g>
		<linearGradient id="SVGID_1_" gradientUnits="userSpaceOnUse" x1="0.2939" y1="24.2544" x2="12.3916" y2="24.2544">
			<stop  offset="0" style="stop-color:#2F1464"/>
			<stop  offset="1" style="stop-color:#2F1464"/>
		</linearGradient>
		<path fill="url(#SVGID_1_)" d="M0.294,15.456c1.912-0.731,3.181-1.118,5.823-1.118c3.46,0,6.274,2.815,6.274,6.296v1.74
			c0,3.481-2.814,6.296-6.274,6.296H5.602c-0.881,0-1.719-0.193-2.493-0.516v5.694c0,0.43-2.814,0.43-2.814,0V15.456z M9.577,20.634
			c0-1.913-1.547-3.481-3.46-3.481H5.602c-1.074,0.064-1.697,0.279-2.493,0.58v7.07c0.646,0.645,1.526,1.053,2.493,1.053h0.516
			c1.913,0,3.46-1.569,3.46-3.481V20.634z"/>
		<linearGradient id="SVGID_2_" gradientUnits="userSpaceOnUse" x1="13.252" y1="21.5044" x2="25.9512" y2="21.5044">
			<stop  offset="0" style="stop-color:#2F1464"/>
			<stop  offset="1" style="stop-color:#2F1464"/>
		</linearGradient>
		<path fill="url(#SVGID_2_)" d="M19.548,28.671c-3.374-0.021-6.296-2.772-6.296-6.296v-1.74c0-3.481,2.814-6.296,6.296-6.296h0.107
			c3.48,0,6.296,2.815,6.296,6.296v0.688c0,0.709-0.15,1.482-0.58,1.482h-9.283c0.236,1.719,1.741,3.052,3.46,3.052h0.537
			c1.396,0,2.492-0.881,2.986-1.719c0.387-0.666,2.815,0.73,2.429,1.418c-0.881,1.526-2.815,3.116-5.437,3.116H19.548z
			 M19.548,17.153c-1.783,0-3.267,1.354-3.46,3.094h7.026c-0.193-1.74-1.676-3.094-3.459-3.094H19.548z"/>
		<linearGradient id="SVGID_3_" gradientUnits="userSpaceOnUse" x1="26.3818" y1="18.5581" x2="38.501" y2="18.5581">
			<stop  offset="0" style="stop-color:#2F1464"/>
			<stop  offset="1" style="stop-color:#2F1464"/>
		</linearGradient>
		<path fill="url(#SVGID_3_)" d="M26.382,20.634c0-3.481,2.836-6.318,6.296-6.318c1.246,0,2.17,0.086,3.008,0.258V8.751
			c0-0.408,2.815-0.408,2.815,0v19.597c0,0.43-2.815,0.43-2.815,0v-0.193c-0.773,0.344-1.611,0.516-2.492,0.516h-0.516
			c-3.46,0-6.296-2.815-6.296-6.296V20.634z M35.686,17.733c-0.795-0.322-1.418-0.537-2.492-0.58h-0.516
			c-1.913,0-3.481,1.547-3.481,3.481v1.74c0,1.913,1.568,3.481,3.481,3.481h0.516c0.967,0,1.869-0.409,2.492-1.053V17.733z"/>
		<linearGradient id="SVGID_4_" gradientUnits="userSpaceOnUse" x1="39.3604" y1="21.5044" x2="52.4463" y2="21.5044">
			<stop  offset="0" style="stop-color:#2F1464"/>
			<stop  offset="1" style="stop-color:#2F1464"/>
		</linearGradient>
		<path fill="url(#SVGID_4_)" d="M39.36,20.634c0-3.481,2.814-6.296,6.296-6.296h0.494c3.481,0,6.296,2.815,6.296,6.296v1.74
			c0,3.481-2.814,6.296-6.296,6.296h-0.494c-3.481,0-6.296-2.815-6.296-6.296V20.634z M49.632,20.634
			c0-1.913-1.548-3.481-3.481-3.481h-0.494c-1.935,0-3.481,1.569-3.481,3.481v1.74c0,1.913,1.547,3.481,3.481,3.481h0.494
			c1.934,0,3.481-1.569,3.481-3.481V20.634z"/>
		<linearGradient id="SVGID_5_" gradientUnits="userSpaceOnUse" x1="52.6543" y1="21.5015" x2="63.2549" y2="21.5015">
			<stop  offset="0" style="stop-color:#2F1464"/>
			<stop  offset="1" style="stop-color:#2F1464"/>
		</linearGradient>
		<path fill="url(#SVGID_5_)" d="M57.045,22.589l-0.043-0.021c-0.451-0.021-1.354-0.172-2.17-0.688
			c-0.924-0.602-1.698-1.655-1.72-3.223c0.021-1.676,0.839-2.836,1.978-3.524c1.031-0.624,2.256-0.795,3.223-0.795
			c1.763,0.021,3.267,0.408,4.341,0.881c0.709,0.322-0.43,2.922-1.139,2.6c-0.752-0.323-1.869-0.645-3.202-0.667
			c-0.688,0.021-1.354,0.15-1.783,0.408c-0.344,0.215-0.58,0.495-0.58,1.096c0,0.494,0.193,0.709,0.408,0.838
			c0.301,0.193,0.666,0.236,0.752,0.258h0.086c0.688,0.043,2.085,0,3.31,0.43c1.525,0.516,2.75,1.762,2.75,4.062
			c-0.043,1.999-1.16,3.502-3.137,4.126c-1.806,0.537-4.233,0.322-7.156-0.495c-0.752-0.215,0.021-2.944,0.774-2.729
			c2.729,0.774,4.533,0.795,5.544,0.494c0.838-0.258,1.139-0.709,1.139-1.439c0-0.537-0.129-0.816-0.236-0.945
			c-0.107-0.15-0.279-0.301-0.602-0.409s-0.73-0.172-1.204-0.215c-0.258-0.021-0.494-0.021-0.709-0.043H57.045z"/>
	</g>
</g>
</svg>
